# xmcd
#
# Track frame offsets: 
#        150
#        13867
#        29729
#        42251
#        54242
#        67766
#        84525
#        97801
#        108593
#        121042
#        142200
#        156543
#        170047
#        185847
#        200391
#        213071
#        225044
#        236698
#        250348
#        263196
#        275494
#        288284
#        303112
#
# Disc length: 4172 seconds
#
# Revision: 0
# Processed by: cddbd v1.5.2PL0 Copyright (c) Steve Scherf et al.
# Submitted via: ExactAudioCopy v1.1
#
DISCID=42104a17
DTITLE=Various Artist - All Time Country Favourites - 1975 - 1980
DYEAR=2011
DGENRE=Country
TTITLE0=Conway Twitty and Loretta Lynn - Feelings
TTITLE1=Dolly Parton - Heartbreaker
TTITLE2=Charley Pride - More to me
TTITLE3=Larry Gatlin and the Gatlin Brothers Band - All the gold in Ca
TTITLE3=lifornia
TTITLE4=Waylon Jennings - Amanda
TTITLE5=Johnny Cash - ( Ghost ) Riders in the sky
TTITLE6=Johnny Duncan - She can put her shoes under my bed ( anytime )
TTITLE7=Kenny Rogers and Dottie West - Anyone who isn't me tonight
TTITLE8=Dave and Sugar - The door is always open
TTITLE9=Willie Nelson - Uncloudy day
TTITLE10=Don Williams - Tulsa time
TTITLE11=Barbara Mandrell - Fooled by a feeling
TTITLE12=Anne Murray - Shadows in the moonlight
TTITLE13=Dr. Hook - If not you
TTITLE14=Gary Stewart - She's actin' single ( I'm drinking doubles )
TTITLE15=Johnny Paycheck - Take this job and shove it
TTITLE16=Johnny Rodriguez - I just can't get her out of my mind
TTITLE17=Oak Ridge Boys - Leaving Louisiana in the broad daylight
TTITLE18=Don Gibson - If you ever get to Houston ( look me down )
TTITLE19=John Conlee - Before my time 
TTITLE20=Joe Stampley - Red wine and blue memories
TTITLE21=Lynn Anderson - I love how you love me
TTITLE22=Jim Reeves and Deborah Allen - Oh, how I miss you tonight
EXTD=
EXTT0=
EXTT1=
EXTT2=
EXTT3=
EXTT4=
EXTT5=
EXTT6=
EXTT7=
EXTT8=
EXTT9=
EXTT10=
EXTT11=
EXTT12=
EXTT13=
EXTT14=
EXTT15=
EXTT16=
EXTT17=
EXTT18=
EXTT19=
EXTT20=
EXTT21=
EXTT22=
PLAYORDER=
